<svg xmlns="http://www.w3.org/2000/svg" viewBox="0 0 1200 750" role="img" aria-label="Arab Street cafes and textile shophouses"><defs><linearGradient id="g" x1="0" y1="0" x2="0" y2="1"><stop stop-color="#f7e8cf"/><stop offset="1" stop-color="#b8d8cc"/></linearGradient><linearGradient id="shade" x1="0" y1="0" x2="0" y2="1"><stop offset=".45" stop-color="#000" stop-opacity="0"/><stop offset="1" stop-color="#0b4f43" stop-opacity=".75"/></linearGradient></defs><rect width="1200" height="750" fill="url(#g)"/><path d="M0 235h1200v390H0z" fill="#f3d6a2"/><g><rect x="60" y="270" width="170" height="330" fill="#e08b6c"/><rect x="250" y="245" width="180" height="355" fill="#f1eee1"/><rect x="450" y="260" width="170" height="340" fill="#9cc6b7"/><rect x="640" y="235" width="190" height="365" fill="#f2c879"/><rect x="850" y="260" width="180" height="340" fill="#f5eee2"/><rect x="1050" y="245" width="150" height="355" fill="#d98d72"/></g><g fill="#154f43"><rect x="90" y="350" width="95" height="120" rx="8"/><rect x="285" y="330" width="108" height="128" rx="8"/><rect x="485" y="350" width="92" height="120" rx="8"/><rect x="682" y="320" width="112" height="138" rx="8"/><rect x="888" y="348" width="105" height="120" rx="8"/></g><path d="M0 600c145-40 305-42 480-4 275 60 498 45 720-24v178H0z" fill="#0f5a4a" opacity=".6"/><rect width="1200" height="750" fill="url(#shade)"/></svg>