<svg xmlns="http://www.w3.org/2000/svg" viewBox="0 0 1200 750" role="img" aria-label="Bugis shopping and halal cafe district"><defs><linearGradient id="g" x1="0" y1="0" x2="0" y2="1"><stop stop-color="#f2dfb4"/><stop offset="1" stop-color="#9fcabd"/></linearGradient><linearGradient id="shade" x1="0" y1="0" x2="0" y2="1"><stop offset=".45" stop-color="#000" stop-opacity="0"/><stop offset="1" stop-color="#0b4f43" stop-opacity=".74"/></linearGradient></defs><rect width="1200" height="750" fill="url(#g)"/><path d="M80 260h1040v350H80z" fill="#f6eee2"/><path d="M140 195h920l60 80H80z" fill="#c79a3d"/><g fill="#0f5a4a"><rect x="155" y="330" width="130" height="165" rx="8"/><rect x="330" y="330" width="130" height="165" rx="8"/><rect x="505" y="330" width="130" height="165" rx="8"/><rect x="680" y="330" width="130" height="165" rx="8"/><rect x="855" y="330" width="130" height="165" rx="8"/></g><g fill="#f1c86b"><circle cx="220" cy="545" r="40"/><circle cx="395" cy="545" r="40"/><circle cx="570" cy="545" r="40"/><circle cx="745" cy="545" r="40"/><circle cx="920" cy="545" r="40"/></g><path d="M0 610c210-60 415-50 615 0 220 55 410 42 585-25v165H0z" fill="#0f5a4a" opacity=".6"/><rect width="1200" height="750" fill="url(#shade)"/></svg>