<svg xmlns="http://www.w3.org/2000/svg" viewBox="0 0 1200 750" role="img" aria-label="Geylang Serai market and halal food stalls"><defs><linearGradient id="g" x1="0" y1="0" x2="0" y2="1"><stop stop-color="#f6ddb0"/><stop offset="1" stop-color="#9bcbbb"/></linearGradient><linearGradient id="shade" x1="0" y1="0" x2="0" y2="1"><stop offset=".45" stop-color="#000" stop-opacity="0"/><stop offset="1" stop-color="#0b4f43" stop-opacity=".74"/></linearGradient></defs><rect width="1200" height="750" fill="url(#g)"/><path d="M90 300h1020v300H90z" fill="#f4eadb"/><path d="M60 305h1080l-95-115H155z" fill="#0f5a4a"/><g fill="#d9984f"><rect x="145" y="360" width="150" height="160" rx="8"/><rect x="335" y="360" width="150" height="160" rx="8"/><rect x="525" y="360" width="150" height="160" rx="8"/><rect x="715" y="360" width="150" height="160" rx="8"/><rect x="905" y="360" width="150" height="160" rx="8"/></g><g fill="#fff3dc"><circle cx="220" cy="560" r="44"/><circle cx="410" cy="560" r="44"/><circle cx="600" cy="560" r="44"/><circle cx="790" cy="560" r="44"/><circle cx="980" cy="560" r="44"/></g><path d="M0 615c225-68 457-40 650 0 215 44 375 28 550-36v171H0z" fill="#0f5a4a" opacity=".6"/><rect width="1200" height="750" fill="url(#shade)"/></svg>