<svg xmlns="http://www.w3.org/2000/svg" viewBox="0 0 1200 750" role="img" aria-label="Islandwide Singapore skyline"><defs><linearGradient id="g" x1="0" y1="0" x2="0" y2="1"><stop stop-color="#cfe8e4"/><stop offset="1" stop-color="#f4d99b"/></linearGradient><linearGradient id="shade" x1="0" y1="0" x2="0" y2="1"><stop offset=".45" stop-color="#000" stop-opacity="0"/><stop offset="1" stop-color="#0b4f43" stop-opacity=".75"/></linearGradient></defs><rect width="1200" height="750" fill="url(#g)"/><circle cx="980" cy="150" r="78" fill="#f3c766"/><g fill="#eaf4ef"><rect x="120" y="310" width="90" height="300" rx="8"/><rect x="245" y="245" width="115" height="365" rx="8"/><rect x="395" y="285" width="95" height="325" rx="8"/><rect x="540" y="205" width="125" height="405" rx="8"/><rect x="720" y="260" width="110" height="350" rx="8"/><rect x="880" y="300" width="92" height="310" rx="8"/><rect x="1010" y="255" width="115" height="355" rx="8"/></g><path d="M235 610c40-150 95-230 165-240 70 10 125 90 165 240z" fill="#0f5a4a" opacity=".28"/><path d="M0 600c205-52 410-50 620 0 220 52 408 42 580-22v172H0z" fill="#0f5a4a" opacity=".58"/><rect width="1200" height="750" fill="url(#shade)"/></svg>