<svg xmlns="http://www.w3.org/2000/svg" viewBox="0 0 1200 750" role="img" aria-label="Kampong Glam shophouses and mosque dome"><defs><linearGradient id="sky" x1="0" y1="0" x2="0" y2="1"><stop stop-color="#f6ead2"/><stop offset="1" stop-color="#9fc7b7"/></linearGradient><linearGradient id="shade" x1="0" y1="0" x2="0" y2="1"><stop offset=".42" stop-color="#000" stop-opacity="0"/><stop offset="1" stop-color="#0b4f43" stop-opacity=".75"/></linearGradient></defs><rect width="1200" height="750" fill="url(#sky)"/><circle cx="915" cy="210" r="86" fill="#c69b3c"/><rect x="125" y="250" width="220" height="360" rx="10" fill="#f4d7a7"/><rect x="365" y="230" width="230" height="380" rx="10" fill="#e9f0e7"/><rect x="620" y="250" width="220" height="360" rx="10" fill="#f6c9a7"/><path d="M875 365c0-95 72-172 160-172s160 77 160 172v245H875z" fill="#f3efe4"/><path d="M1035 120l28 80h-56z" fill="#0f5a4a"/><rect x="1019" y="85" width="32" height="115" fill="#0f5a4a"/><g fill="#0d5b4c"><rect x="155" y="335" width="58" height="80" rx="6"/><rect x="245" y="335" width="58" height="80" rx="6"/><rect x="405" y="325" width="65" height="85" rx="6"/><rect x="500" y="325" width="65" height="85" rx="6"/><rect x="650" y="340" width="55" height="80" rx="6"/><rect x="740" y="340" width="55" height="80" rx="6"/></g><path d="M0 600c230-60 447-45 650 0 185 41 364 44 550-15v165H0z" fill="#134f43" opacity=".55"/><rect width="1200" height="750" fill="url(#shade)"/></svg>