<svg xmlns="http://www.w3.org/2000/svg" viewBox="0 0 1200 750" role="img" aria-label="Little India halal biryani and heritage street"><defs><linearGradient id="g" x1="0" y1="0" x2="1" y2="1"><stop stop-color="#f7d78e"/><stop offset="1" stop-color="#94c7b9"/></linearGradient><linearGradient id="shade" x1="0" y1="0" x2="0" y2="1"><stop offset=".45" stop-color="#000" stop-opacity="0"/><stop offset="1" stop-color="#0b4f43" stop-opacity=".75"/></linearGradient></defs><rect width="1200" height="750" fill="url(#g)"/><rect x="70" y="245" width="230" height="365" rx="12" fill="#df7d58"/><rect x="335" y="210" width="230" height="400" rx="12" fill="#f4eee0"/><rect x="600" y="250" width="220" height="360" rx="12" fill="#88bdaa"/><rect x="855" y="225" width="240" height="385" rx="12" fill="#efc264"/><g fill="#104f43"><rect x="115" y="330" width="135" height="135" rx="8"/><rect x="382" y="305" width="135" height="140" rx="8"/><rect x="645" y="340" width="130" height="125" rx="8"/><rect x="905" y="315" width="140" height="145" rx="8"/></g><circle cx="600" cy="575" r="78" fill="#f6efe1"/><circle cx="600" cy="575" r="50" fill="#d99946"/><path d="M0 610c205-64 430-50 650 0 207 47 385 34 550-26v166H0z" fill="#0f5a4a" opacity=".6"/><rect width="1200" height="750" fill="url(#shade)"/></svg>