<svg xmlns="http://www.w3.org/2000/svg" viewBox="0 0 1200 750" role="img" aria-label="Race Course Road Indian-Muslim food street"><defs><linearGradient id="g" x1="0" y1="0" x2="1" y2="1"><stop stop-color="#f9e7bc"/><stop offset="1" stop-color="#9ecbbc"/></linearGradient><linearGradient id="shade" x1="0" y1="0" x2="0" y2="1"><stop offset=".45" stop-color="#000" stop-opacity="0"/><stop offset="1" stop-color="#0b4f43" stop-opacity=".73"/></linearGradient></defs><rect width="1200" height="750" fill="url(#g)"/><rect x="0" y="250" width="1200" height="360" fill="#ead2a0"/><g fill="#f6efe2"><rect x="95" y="210" width="170" height="390" rx="10"/><rect x="300" y="240" width="160" height="360" rx="10"/><rect x="785" y="225" width="165" height="375" rx="10"/><rect x="985" y="205" width="155" height="395" rx="10"/></g><path d="M560 610V375c0-72 52-130 116-130s116 58 116 130v235z" fill="#d97847"/><circle cx="676" cy="238" r="58" fill="#c69b3c"/><g fill="#145a4b"><rect x="130" y="315" width="90" height="118" rx="8"/><rect x="335" y="335" width="88" height="105" rx="8"/><rect x="820" y="325" width="88" height="110" rx="8"/><rect x="1018" y="318" width="85" height="118" rx="8"/></g><ellipse cx="600" cy="620" rx="420" ry="70" fill="#0f5a4a" opacity=".45"/><rect width="1200" height="750" fill="url(#shade)"/></svg>