<svg xmlns="http://www.w3.org/2000/svg" viewBox="0 0 1200 750" role="img" aria-label="Tampines neighbourhood with mosque and homes"><defs><linearGradient id="g" x1="0" y1="0" x2="1" y2="1"><stop stop-color="#dbeee8"/><stop offset="1" stop-color="#f4d69a"/></linearGradient><linearGradient id="shade" x1="0" y1="0" x2="0" y2="1"><stop offset=".45" stop-color="#000" stop-opacity="0"/><stop offset="1" stop-color="#0b4f43" stop-opacity=".72"/></linearGradient></defs><rect width="1200" height="750" fill="url(#g)"/><g fill="#e9f5ed"><rect x="120" y="190" width="155" height="440" rx="12"/><rect x="315" y="145" width="180" height="485" rx="12"/><rect x="535" y="210" width="160" height="420" rx="12"/><rect x="870" y="220" width="190" height="410" rx="12"/></g><g fill="#1f6656" opacity=".7"><path d="M155 250h80v22h-80zM155 315h80v22h-80zM155 380h80v22h-80zM355 220h100v24H355zM355 295h100v24H355zM355 370h100v24H355zM570 280h92v22h-92zM570 345h92v22h-92zM910 295h110v24H910zM910 370h110v24H910z"/></g><path d="M720 625V405c0-82 61-148 137-148s137 66 137 148v220z" fill="#f8f0dd"/><circle cx="857" cy="250" r="68" fill="#c69b3c"/><path d="M0 610c185-55 380-58 570-18 232 48 424 37 630-36v194H0z" fill="#0f5a4a" opacity=".58"/><rect width="1200" height="750" fill="url(#shade)"/></svg>