<svg xmlns="http://www.w3.org/2000/svg" viewBox="0 0 1200 750" role="img" aria-label="Tanjong Pagar city dining district"><defs><linearGradient id="g" x1="0" y1="0" x2="1" y2="1"><stop stop-color="#d5ece7"/><stop offset="1" stop-color="#f2d18d"/></linearGradient><linearGradient id="shade" x1="0" y1="0" x2="0" y2="1"><stop offset=".45" stop-color="#000" stop-opacity="0"/><stop offset="1" stop-color="#0b4f43" stop-opacity=".74"/></linearGradient></defs><rect width="1200" height="750" fill="url(#g)"/><g fill="#e8f1ea"><rect x="110" y="190" width="105" height="420" rx="8"/><rect x="250" y="145" width="125" height="465" rx="8"/><rect x="415" y="230" width="110" height="380" rx="8"/><rect x="730" y="170" width="115" height="440" rx="8"/><rect x="885" y="235" width="105" height="375" rx="8"/><rect x="1025" y="205" width="110" height="405" rx="8"/></g><path d="M525 610V360h205v250z" fill="#cf8a58"/><path d="M500 360h255l-40-80H540z" fill="#0f5a4a"/><g fill="#145a4b" opacity=".8"><rect x="145" y="260" width="42" height="52"/><rect x="285" y="220" width="52" height="58"/><rect x="452" y="295" width="42" height="52"/><rect x="765" y="250" width="48" height="58"/><rect x="920" y="305" width="42" height="52"/></g><path d="M0 615c230-74 430-42 650 0 210 40 395 30 550-35v170H0z" fill="#0f5a4a" opacity=".6"/><rect width="1200" height="750" fill="url(#shade)"/></svg>